<?xml version="1.0" standalone="no"?>
<!DOCTYPE svg PUBLIC "-//W3C//DTD SVG 20010904//EN"
 "http://www.w3.org/TR/2001/REC-SVG-20010904/DTD/svg10.dtd">
<svg version="1.0" xmlns="http://www.w3.org/2000/svg"
 width="200.000000pt" height="200.000000pt" viewBox="0 0 200.000000 200.000000"
 preserveAspectRatio="xMidYMid meet">
<metadata>
Created by potrace 1.11, written by Peter Selinger 2001-2013
</metadata>
<g transform="translate(0.000000,200.000000) scale(0.100000,-0.100000)"
fill="#000000" stroke="none">
<path d="M975 1901 c-37 -11 -60 -35 -125 -131 -35 -52 -82 -121 -104 -153
-23 -32 -45 -66 -51 -75 -5 -9 -13 -19 -16 -22 -3 -3 -14 -19 -24 -36 -25 -44
-50 -56 -215 -104 -376 -109 -384 -113 -388 -188 -3 -44 -1 -48 153 -247 199
-260 178 -219 177 -333 -1 -54 -4 -176 -7 -270 -6 -188 -1 -215 51 -243 40
-21 77 -13 306 69 123 44 235 82 250 86 20 4 86 -15 240 -70 296 -105 297
-106 345 -84 60 27 64 48 57 261 -11 330 -10 346 22 389 67 89 178 235 184
240 7 7 82 108 103 140 32 47 11 126 -38 148 -12 6 -116 38 -231 71 -313 92
-271 65 -404 258 -63 92 -128 188 -145 213 -44 69 -91 96 -140 81z m180 -670
c128 -63 193 -164 201 -308 7 -142 -71 -270 -203 -335 -59 -29 -76 -32 -152
-32 -72 -1 -95 4 -143 26 -79 37 -142 98 -181 177 -29 58 -32 75 -32 151 0 74
4 93 31 150 89 185 298 260 479 171z"/>
</g>
</svg>
